<svg width="383" height="71" viewBox="0 0 383 71" fill="none" xmlns="http://www.w3.org/2000/svg">
<path d="M36.9428 30.3268H71.0344L69.876 37.1838C68.2661 47.4193 63.919 55.5343 56.8379 61.5193C49.819 67.5075 41.1934 70.5 30.9547 70.5C20.3952 70.5 12.2834 67.0217 6.61909 60.0713C0.951693 53.0556 -1.07549 44.458 0.534422 34.2847C2.14434 24.4352 6.71563 16.2237 14.2483 9.6595C21.6502 3.22295 30.4066 0 40.5176 0C47.0196 0 52.7181 1.40129 57.6101 4.20073C62.5022 7.00018 66.2358 10.9113 68.8141 15.9341L52.9766 24.4321C50.1429 19.4093 45.4097 16.8995 38.78 16.8995C33.5642 16.8995 28.9617 18.6059 24.9696 22.0188C21.1083 25.4317 18.6919 29.8411 17.7266 35.25C16.7612 40.6589 17.63 45.1648 20.333 48.7708C23.0359 52.3114 27.0934 54.0832 32.5023 54.0832C40.7418 54.0832 46.568 51.1218 49.9809 45.1991H34.3364L36.9428 30.3268Z" fill="#DAAF2D"/>
<path d="M75.3765 1.45166H126.078L123.085 18.1612H106.476L97.4918 69.0525H80.2062L89.1869 18.158H72.4805L75.3765 1.45166Z" fill="#DAAF2D"/>
<path d="M175.525 69.0525H157.078L156.016 59.2996H133.515L128.878 69.0525H109.852L144.04 1.45166H165.093L175.525 69.0525ZM151.865 21.0571L140.661 44.4274H154.375L151.865 21.0571Z" fill="#DAAF2D"/>
<path d="M234.533 1.45135L231.637 17.9647H207.977L206.143 25.2077H210.297C216.799 25.2077 221.984 27.3003 225.845 31.4855C229.772 35.6052 231.092 41.3692 229.806 48.771C228.517 55.8553 225.332 61.2611 220.246 64.9948C215.158 68.663 209.173 70.5002 202.285 70.5002C190.054 70.5002 182.228 65.4151 178.818 55.2419L194.752 46.9369C196.166 51.4428 199.293 53.6973 204.119 53.6973C206.436 53.6973 208.37 53.1524 209.914 52.0563C211.459 50.9633 212.393 49.4499 212.714 47.5161C213.035 45.5855 212.667 44.0378 211.602 42.8794C210.54 41.721 208.88 41.1418 206.629 41.1418H184.9L194.653 1.44824H234.533V1.45135Z" fill="#DAAF2D"/>
<path d="M245.352 1.45166H272.877C281.826 1.45166 288.938 4.86455 294.22 11.6872C299.498 18.513 301.332 26.6903 299.725 36.2159C297.988 45.8754 293.575 53.7599 286.494 59.8757C279.41 65.9946 270.912 69.0494 260.997 69.0494H233.473L245.352 1.45166ZM282.919 34.9609C283.754 29.8759 282.981 25.8028 280.602 22.7449C278.22 19.687 274.677 18.158 269.981 18.158H260.228L254.143 52.3462H263.413C268.305 52.3462 272.522 50.7705 276.065 47.613C279.668 44.3962 281.954 40.1768 282.919 34.9609Z" fill="url(#paint0_linear_130_4971)"/>
<path d="M364.425 1.45166H382.775L370.896 69.0525H353.707L360.081 32.5476L338.931 59.7823H337.193L325.7 32.065L319.229 69.0525H301.943L313.823 1.45166H331.109L342.12 30.617L364.425 1.45166Z" fill="url(#paint1_linear_130_4971)"/>
<defs>
<linearGradient id="paint0_linear_130_4971" x1="266.879" y1="-7.83257" x2="266.879" y2="83.6731" gradientUnits="userSpaceOnUse">
<stop offset="0.1532" stop-color="#DE851F"/>
<stop offset="1" stop-color="#DB1C1C"/>
</linearGradient>
<linearGradient id="paint1_linear_130_4971" x1="342.358" y1="-7.83257" x2="342.358" y2="83.6731" gradientUnits="userSpaceOnUse">
<stop offset="0.1532" stop-color="#DE851F"/>
<stop offset="1" stop-color="#DB1C1C"/>
</linearGradient>
</defs>
</svg>
