<svg width="110" height="21" viewBox="0 0 110 21" fill="none" xmlns="http://www.w3.org/2000/svg">
<g id="Group">
<path id="Vector" d="M10.5392 8.65154H20.265L19.9346 10.6077C19.4753 13.5276 18.2351 15.8426 16.215 17.55C14.2126 19.2583 11.7518 20.112 8.83089 20.112C5.81845 20.112 3.50426 19.1197 1.88833 17.137C0.271503 15.1355 -0.306822 12.6828 0.152463 9.78062C0.611747 6.9708 1.91587 4.62825 4.06482 2.75563C6.17646 0.919433 8.67454 0 11.5591 0C13.414 0 15.0397 0.399755 16.4353 1.19837C17.8309 1.99699 18.8961 3.11274 19.6316 4.54563L15.1134 6.96991C14.305 5.53702 12.9547 4.82102 11.0634 4.82102C9.57534 4.82102 8.26234 5.30783 7.12346 6.28145C6.02188 7.25507 5.33251 8.51296 5.05712 10.056C4.78173 11.599 5.02958 12.8845 5.80068 13.9132C6.57178 14.9232 7.72932 15.4287 9.27241 15.4287C11.623 15.4287 13.2852 14.5839 14.2588 12.8942H9.79566L10.5392 8.65154Z" fill="#DAAF2D"/>
<path id="Vector_2" d="M21.5029 0.413666H35.9673L35.1136 5.1805H30.375L27.8121 19.6986H22.8808L25.4428 5.17961H20.6768L21.5029 0.413666Z" fill="#DAAF2D"/>
<path id="Vector_3" d="M50.074 19.6986H44.8113L44.5084 16.9163H38.0891L36.7663 19.6986H31.3384L41.0917 0.413666H47.098L50.074 19.6986ZM43.3242 6.00665L40.1279 12.6736H44.0402L43.3242 6.00665Z" fill="#DAAF2D"/>
<path id="Vector_4" d="M66.909 0.414552L66.0828 5.12542H59.333L58.8098 7.1917H59.9949C61.8498 7.1917 63.3289 7.78866 64.4305 8.98259C65.5507 10.1579 65.9274 11.8022 65.5605 13.9138C65.1927 15.9347 64.2839 17.4769 62.8332 18.542C61.3816 19.5885 59.6742 20.1126 57.7091 20.1126C54.2196 20.1126 51.9872 18.6619 51.0144 15.7597L55.5602 13.3905C55.9635 14.676 56.8554 15.3191 58.2324 15.3191C58.8933 15.3191 59.445 15.1637 59.8856 14.851C60.3262 14.5392 60.5927 14.1074 60.6842 13.5558C60.7757 13.005 60.6709 12.5635 60.3671 12.233C60.0642 11.9026 59.5907 11.7373 58.9484 11.7373H52.7494L55.5317 0.413666H66.909V0.414552Z" fill="#DAAF2D"/>
<path id="Vector_5" d="M69.9941 0.413666H77.8463C80.3995 0.413666 82.4285 1.38729 83.9352 3.33364C85.441 5.28088 85.9642 7.61366 85.5058 10.3311C85.0101 13.0867 83.7513 15.336 81.7312 17.0807C79.7101 18.8263 77.2858 19.6977 74.4572 19.6977H66.605L69.9941 0.413666ZM80.7113 9.97309C80.9494 8.52243 80.7291 7.36048 80.0504 6.48813C79.3708 5.61578 78.3598 5.17961 77.0202 5.17961H74.2378L72.5019 14.9327H75.1466C76.5422 14.9327 77.7451 14.4832 78.756 13.5824C79.7839 12.6648 80.4359 11.4611 80.7113 9.97309Z" fill="url(#paint0_linear_32_6784)"/>
<path id="Vector_6" d="M103.965 0.413666H109.2L105.811 19.6986H100.907L102.726 9.28462L96.6921 17.054H96.1964L92.9175 9.14693L91.0714 19.6986H86.1401L89.5292 0.413666H94.4606L97.6018 8.73385L103.965 0.413666Z" fill="url(#paint1_linear_32_6784)"/>
</g>
<defs>
<linearGradient id="paint0_linear_32_6784" x1="76.1354" y1="-2.23491" x2="76.1354" y2="23.8695" gradientUnits="userSpaceOnUse">
<stop offset="0.1532" stop-color="#DE851F"/>
<stop offset="1" stop-color="#DB1C1C"/>
</linearGradient>
<linearGradient id="paint1_linear_32_6784" x1="97.6699" y1="-2.23491" x2="97.6699" y2="23.8695" gradientUnits="userSpaceOnUse">
<stop offset="0.1532" stop-color="#DE851F"/>
<stop offset="1" stop-color="#DB1C1C"/>
</linearGradient>
</defs>
</svg>
