<svg width="17" height="23" viewBox="0 0 17 23" fill="none" xmlns="http://www.w3.org/2000/svg">
<g id="Page-1">
<g id="Artboard-5">
<path id="Combined-Shape" fill-rule="evenodd" clip-rule="evenodd" d="M0.00512695 21.5005L1.1442 19.969L1.71172 20.7321L0.572651 22.2636H0.00512695V21.5005ZM0.00512695 1.37481L1.1442 2.90629L1.71172 2.14326L0.572651 0.617188H0.00512695V1.38022V1.37481ZM15.5376 22.2636L14.3985 20.7321L14.966 19.969L16.1051 21.5005V22.2636H15.5376ZM16.1051 1.38022L14.966 2.9117L14.3985 2.14867L15.5376 0.617188H16.1051V1.38022ZM8.05511 10.6828L9.19418 9.15127L9.7617 9.9143L8.62263 11.4404L9.7617 12.9719L9.19418 13.7349L8.05511 12.2034L6.91604 13.7349L6.34851 12.9719L7.48758 11.4404L6.34851 9.90889L6.91604 9.14586L8.05511 10.6773V10.6828Z" fill="white"/>
</g>
</g>
</svg>
