<svg width="120" height="23" viewBox="0 0 120 23" fill="none" xmlns="http://www.w3.org/2000/svg">
<path d="M11.5816 9.50745H22.2693L21.9061 11.6571C21.4014 14.8659 20.0386 17.41 17.8186 19.2863C15.6182 21.1636 12.9141 22.1017 9.70427 22.1017C6.3939 22.1017 3.85083 21.0113 2.07508 18.8323C0.298355 16.6329 -0.337167 13.9375 0.167541 10.7482C0.672249 7.66043 2.10535 5.08613 4.46683 3.02825C6.78732 1.01039 9.53246 0 12.7023 0C14.7406 0 16.5271 0.439303 18.0608 1.31693C19.5944 2.19455 20.7649 3.42069 21.5732 4.99534L16.6081 7.65945C15.7198 6.08481 14.2359 5.29797 12.1575 5.29797C10.5223 5.29797 9.07949 5.83294 7.82797 6.90288C6.61745 7.97282 5.8599 9.35515 5.55727 11.0509C5.25464 12.7466 5.52701 14.1592 6.37437 15.2896C7.22174 16.3996 8.49376 16.9551 10.1895 16.9551C12.7725 16.9551 14.5991 16.0267 15.669 14.1699H10.7645L11.5816 9.50745Z" fill="#DAAF2D"/>
<path d="M23.6305 0.455078H39.5254L38.5873 5.6935H33.3801L30.5637 21.6479H25.1447L27.9601 5.69252H22.7227L23.6305 0.455078Z" fill="#DAAF2D"/>
<path d="M55.028 21.6479H49.2449L48.912 18.5904H41.8578L40.4042 21.6479H34.4395L45.1574 0.455078H51.7577L55.028 21.6479ZM47.6107 6.60138L44.0982 13.9279H48.3975L47.6107 6.60138Z" fill="#DAAF2D"/>
<path d="M73.5252 0.454587L72.6173 5.6315H65.2L64.625 7.9022H65.9272C67.9656 7.9022 69.591 8.55822 70.8015 9.87027C72.0325 11.1618 72.4465 12.9688 72.0433 15.2893C71.6391 17.5102 70.6404 19.2049 69.0463 20.3754C67.4511 21.5254 65.5748 22.1014 63.4154 22.1014C59.5808 22.1014 57.1276 20.5072 56.0586 17.3179L61.0539 14.7143C61.4971 16.1269 62.4773 16.8337 63.9904 16.8337C64.7167 16.8337 65.323 16.6628 65.8072 16.3192C66.2914 15.9765 66.5842 15.5021 66.6848 14.8959C66.7853 14.2906 66.6702 13.8054 66.3363 13.4423C66.0034 13.0791 65.4831 12.8975 64.7772 12.8975H57.9652L61.0227 0.453613H73.5252V0.454587Z" fill="#DAAF2D"/>
<path d="M76.9177 0.455078H85.5465C88.3522 0.455078 90.5819 1.52502 92.2375 3.66393C93.8922 5.80381 94.4672 8.36737 93.9635 11.3536C93.4188 14.3819 92.0355 16.8537 89.8155 18.771C87.5946 20.6893 84.9305 21.6469 81.8222 21.6469H73.1934L76.9177 0.455078ZM88.6948 10.9602C88.9564 9.36605 88.7143 8.08915 87.9685 7.1305C87.2217 6.17185 86.1108 5.69252 84.6386 5.69252H81.5811L79.6735 16.4105H82.5797C84.1134 16.4105 85.4352 15.9165 86.5461 14.9266C87.6756 13.9182 88.3922 12.5954 88.6948 10.9602Z" fill="url(#paint0_linear_114_3136)"/>
<path d="M114.248 0.455078H120.001L116.277 21.6479H110.888L112.886 10.2037L106.256 18.7417H105.711L102.108 10.0523L100.079 21.6479H94.6602L98.3844 0.455078H103.803L107.255 9.59839L114.248 0.455078Z" fill="url(#paint1_linear_114_3136)"/>
<defs>
<linearGradient id="paint0_linear_114_3136" x1="83.6664" y1="-2.45552" x2="83.6664" y2="26.2315" gradientUnits="userSpaceOnUse">
<stop offset="0.1532" stop-color="#DE851F"/>
<stop offset="1" stop-color="#DB1C1C"/>
</linearGradient>
<linearGradient id="paint1_linear_114_3136" x1="107.33" y1="-2.45552" x2="107.33" y2="26.2315" gradientUnits="userSpaceOnUse">
<stop offset="0.1532" stop-color="#DE851F"/>
<stop offset="1" stop-color="#DB1C1C"/>
</linearGradient>
</defs>
</svg>
