<svg width="80" height="80" viewBox="0 0 80 80" fill="none" xmlns="http://www.w3.org/2000/svg">
<g style="mix-blend-mode:overlay">
<path fill-rule="evenodd" clip-rule="evenodd" d="M0 77.18L5.66 71.52L8.48 74.34L2.82 80H0V77.18ZM0 2.8L5.66 8.46L8.48 5.64L2.82 0H0V2.82V2.8ZM77.18 80L71.52 74.34L74.34 71.52L80 77.18V80H77.18ZM80 2.82L74.34 8.48L71.52 5.66L77.18 0H80V2.82ZM40 37.2L45.66 31.54L48.48 34.36L42.82 40L48.48 45.66L45.66 48.48L40 42.82L34.34 48.48L31.52 45.66L37.18 40L31.52 34.34L34.34 31.52L40 37.18V37.2Z" fill="white"/>
</g>
</svg>
