<svg width="130" height="24" viewBox="0 0 130 24" fill="none" xmlns="http://www.w3.org/2000/svg">
<path d="M12.5467 10.2998H24.1251L23.7316 12.6285C23.1849 16.1048 21.7085 18.8608 19.3036 20.8935C16.9198 22.9272 13.9903 23.9436 10.513 23.9436C6.92673 23.9436 4.17174 22.7622 2.24801 20.4017C0.323219 18.019 -0.365264 15.099 0.181503 11.6439C0.728271 8.29881 2.28079 5.50998 4.83908 3.28061C7.35294 1.0946 10.3268 0 13.7608 0C15.969 0 17.9044 0.475912 19.5658 1.42667C21.2273 2.37744 22.4953 3.70575 23.371 5.41163L17.9922 8.29776C17.0298 6.59189 15.4223 5.73948 13.1707 5.73948C11.3992 5.73948 9.83613 6.31903 8.48032 7.47814C7.16892 8.63724 6.34824 10.1348 6.02039 11.9718C5.69254 13.8088 5.9876 15.3391 6.90558 16.5638C7.82356 17.7662 9.20158 18.368 11.0386 18.368C13.8369 18.368 15.8157 17.3623 16.9748 15.3507H11.6615L12.5467 10.2998Z" fill="#DAAF2D"/>
<path d="M25.5988 0.493164H42.8183L41.8019 6.16813H36.1608L33.1097 23.4521H27.2391L30.2891 6.16707H24.6152L25.5988 0.493164Z" fill="#DAAF2D"/>
<path d="M59.6129 23.4521H53.3478L52.9872 20.1398H45.3451L43.7704 23.4521H37.3086L48.9197 0.493164H56.07L59.6129 23.4521ZM51.5774 7.15167L47.7723 15.0888H52.4298L51.5774 7.15167Z" fill="#DAAF2D"/>
<path d="M79.6526 0.492755L78.6691 6.10109H70.6336L70.0107 8.56102H71.4215C73.6297 8.56102 75.3906 9.27171 76.702 10.6931C78.0356 12.0923 78.484 14.0498 78.0472 16.5637C77.6094 18.9697 76.5275 20.8057 74.8005 22.0737C73.0724 23.3195 71.0397 23.9435 68.7004 23.9435C64.5462 23.9435 61.8885 22.2165 60.7305 18.7614L66.1421 15.9408C66.6222 17.4711 67.684 18.2368 69.3233 18.2368C70.1101 18.2368 70.7669 18.0517 71.2914 17.6795C71.816 17.3082 72.1333 16.7943 72.2422 16.1375C72.3511 15.4818 72.2263 14.9562 71.8647 14.5628C71.504 14.1694 70.9403 13.9726 70.1757 13.9726H62.7959L66.1082 0.491699H79.6526V0.492755Z" fill="#DAAF2D"/>
<path d="M83.3276 0.493164H92.6756C95.715 0.493164 98.1305 1.65227 99.9242 3.96942C101.717 6.28763 102.34 9.06483 101.794 12.3C101.204 15.5806 99.7053 18.2584 97.3003 20.3354C94.8944 22.4136 92.0082 23.4511 88.6409 23.4511H79.293L83.3276 0.493164ZM96.0862 11.8738C96.3697 10.1467 96.1074 8.76342 95.2994 7.72488C94.4904 6.68634 93.2868 6.16707 91.692 6.16707H88.3797L86.3132 17.7782H89.4616C91.123 17.7782 92.555 17.2431 93.7585 16.1707C94.9821 15.0782 95.7584 13.6452 96.0862 11.8738Z" fill="url(#paint0_linear_168_1223)"/>
<path d="M123.769 0.493164H130.001L125.967 23.4521H120.129L122.294 11.0541L115.111 20.3037H114.521L110.617 10.8902L108.419 23.4521H102.549L106.583 0.493164H112.454L116.194 10.3984L123.769 0.493164Z" fill="url(#paint1_linear_168_1223)"/>
<defs>
<linearGradient id="paint0_linear_168_1223" x1="90.6388" y1="-2.65999" x2="90.6388" y2="28.4176" gradientUnits="userSpaceOnUse">
<stop offset="0.1532" stop-color="#DE851F"/>
<stop offset="1" stop-color="#DB1C1C"/>
</linearGradient>
<linearGradient id="paint1_linear_168_1223" x1="116.275" y1="-2.65999" x2="116.275" y2="28.4176" gradientUnits="userSpaceOnUse">
<stop offset="0.1532" stop-color="#DE851F"/>
<stop offset="1" stop-color="#DB1C1C"/>
</linearGradient>
</defs>
</svg>
