<svg width="16" height="16" viewBox="0 0 16 16" fill="none" xmlns="http://www.w3.org/2000/svg">
<path fill-rule="evenodd" clip-rule="evenodd" d="M7.9987 7.99967C7.17361 7.99967 6.46728 7.70589 5.87972 7.11833C5.29215 6.53077 4.99837 5.82444 4.99837 4.99935C4.99837 4.17426 5.29215 3.46793 5.87972 2.88037C6.46728 2.29281 7.17361 1.99902 7.9987 1.99902C8.82379 1.99902 9.53011 2.29281 10.1177 2.88037C10.7052 3.46793 10.999 4.17426 10.999 4.99935C10.999 5.82444 10.7052 6.53077 10.1177 7.11833C9.53011 7.70589 8.82379 7.99967 7.9987 7.99967ZM4.09827 14.0003C2.93835 14.0003 1.99805 13.06 1.99805 11.9001C1.99805 11.4751 2.10743 11.0844 2.32621 10.7281C2.54498 10.3718 2.83564 10.0999 3.19818 9.91238C3.97326 9.52484 4.76085 9.23418 5.56093 9.04041C6.36102 8.84664 7.17361 8.74976 7.9987 8.74976C8.82379 8.74976 9.63638 8.84664 10.4365 9.04041C11.2365 9.23418 12.0241 9.52484 12.7992 9.91238C13.1618 10.0999 13.4524 10.3718 13.6712 10.7281C13.89 11.0844 13.9993 11.4751 13.9993 11.9001C13.9993 13.06 13.059 14.0003 11.8991 14.0003H4.09827Z" fill="white" fill-opacity="0.25"/>
</svg>
