<svg width="46" height="46" viewBox="0 0 46 46" fill="none" xmlns="http://www.w3.org/2000/svg">
<g id="Page-1">
<g id="Artboard-5">
<path id="Combined-Shape" fill-rule="evenodd" clip-rule="evenodd" d="M0 44.3785L3.2545 41.124L4.876 42.7455L1.6215 46H0V44.3785ZM0 1.61L3.2545 4.8645L4.876 3.243L1.6215 0H0V1.6215V1.61ZM44.3785 46L41.124 42.7455L42.7455 41.124L46 44.3785V46H44.3785ZM46 1.6215L42.7455 4.876L41.124 3.2545L44.3785 0H46V1.6215ZM23 21.39L26.2545 18.1355L27.876 19.757L24.6215 23L27.876 26.2545L26.2545 27.876L23 24.6215L19.7455 27.876L18.124 26.2545L21.3785 23L18.124 19.7455L19.7455 18.124L23 21.3785V21.39Z" fill="white"/>
</g>
</g>
</svg>
