<svg width="142" height="27" viewBox="0 0 142 27" fill="none" xmlns="http://www.w3.org/2000/svg">
<g id="Group">
<path id="Vector" d="M13.701 11.247H26.3445L25.9149 13.7899C25.3179 17.5859 23.7056 20.5954 21.0795 22.815C18.4764 25.0358 15.2774 26.1456 11.4802 26.1456C7.56398 26.1456 4.55554 24.8556 2.45482 22.278C0.352954 19.6762 -0.398868 16.4877 0.198201 12.7148C0.795271 9.06203 2.49063 6.01672 5.28426 3.58232C8.0294 1.19526 11.2769 0 15.0268 0C17.4382 0 19.5516 0.51968 21.3659 1.55788C23.1802 2.59608 24.5649 4.04656 25.5211 5.90932L19.6474 9.06088C18.5965 7.19812 16.8411 6.26732 14.3824 6.26732C12.4479 6.26732 10.741 6.90017 9.26049 8.16588C7.82845 9.43158 6.93227 11.0668 6.57426 13.0728C6.21625 15.0787 6.53846 16.7498 7.54089 18.0871C8.54332 19.4002 10.0481 20.0573 12.0541 20.0573C15.1099 20.0573 17.2707 18.959 18.5364 16.7625H12.7344L13.701 11.247Z" fill="#DAAF2D"/>
<path id="Vector_2" d="M27.9525 0.5383H46.7562L45.6464 6.73517H39.4863L36.1545 25.6087H29.7438L33.0744 6.73402H26.8785L27.9525 0.5383Z" fill="#DAAF2D"/>
<path id="Vector_3" d="M65.0955 25.6087H58.2541L57.8603 21.9918H49.5151L47.7955 25.6087H40.7393L53.4186 0.5383H61.2267L65.0955 25.6087ZM56.3208 7.80917L52.1656 16.4762H57.2516L56.3208 7.80917Z" fill="#DAAF2D"/>
<path id="Vector_4" d="M86.9808 0.539452L85.9067 6.66357H77.132L76.4518 9.34973H77.9924C80.4038 9.34973 82.3266 10.1258 83.7587 11.6779C85.215 13.2057 85.7046 15.3433 85.2277 18.0884C84.7496 20.7157 83.5681 22.7205 81.6822 24.1051C79.7952 25.4655 77.5755 26.1469 75.0209 26.1469C70.4846 26.1469 67.5824 24.261 66.3178 20.4882L72.2273 17.4082C72.7516 19.0793 73.9111 19.9154 75.7011 19.9154C76.5604 19.9154 77.2775 19.7133 77.8503 19.3068C78.4232 18.9014 78.7696 18.3402 78.8886 17.623C79.0075 16.907 78.8713 16.333 78.4763 15.9034C78.0825 15.4738 77.4669 15.259 76.632 15.259H68.5733L72.1903 0.5383H86.9808V0.539452Z" fill="#DAAF2D"/>
<path id="Vector_5" d="M90.9929 0.5383H101.201C104.52 0.5383 107.158 1.804 109.116 4.33426C111.074 6.86567 111.754 9.89828 111.158 13.4309C110.514 17.0132 108.877 19.9373 106.251 22.2054C103.624 24.4747 100.472 25.6076 96.795 25.6076H86.5871L90.9929 0.5383ZM104.925 12.9655C105.235 11.0797 104.948 9.56915 104.066 8.4351C103.183 7.30104 101.868 6.73402 100.127 6.73402H96.5098L94.2531 19.413H97.6912C99.5055 19.413 101.069 18.8287 102.383 17.6577C103.72 16.4647 104.567 14.8999 104.925 12.9655Z" fill="url(#paint0_linear_32_7726)"/>
<path id="Vector_6" d="M135.155 0.5383H141.961L137.555 25.6087H131.18L133.544 12.0705L125.7 22.1708H125.056L120.793 11.8915L118.394 25.6087H111.983L116.389 0.5383H122.799L126.883 11.3545L135.155 0.5383Z" fill="url(#paint1_linear_32_7726)"/>
</g>
<defs>
<linearGradient id="paint0_linear_32_7726" x1="98.9767" y1="-2.90484" x2="98.9767" y2="31.0309" gradientUnits="userSpaceOnUse">
<stop offset="0.1532" stop-color="#DE851F"/>
<stop offset="1" stop-color="#DB1C1C"/>
</linearGradient>
<linearGradient id="paint1_linear_32_7726" x1="126.972" y1="-2.90484" x2="126.972" y2="31.0309" gradientUnits="userSpaceOnUse">
<stop offset="0.1532" stop-color="#DE851F"/>
<stop offset="1" stop-color="#DB1C1C"/>
</linearGradient>
</defs>
</svg>
