<svg width="90" height="90" viewBox="0 0 90 90" fill="none" xmlns="http://www.w3.org/2000/svg">
<g id="Page-1">
<g id="Artboard-5">
<path id="Combined-Shape" fill-rule="evenodd" clip-rule="evenodd" d="M0 86.8275L6.3675 80.46L9.54 83.6325L3.1725 90H0V86.8275ZM0 3.15L6.3675 9.5175L9.54 6.345L3.1725 0H0V3.1725V3.15ZM86.8275 90L80.46 83.6325L83.6325 80.46L90 86.8275V90H86.8275ZM90 3.1725L83.6325 9.54L80.46 6.3675L86.8275 0H90V3.1725ZM45 41.85L51.3675 35.4825L54.54 38.655L48.1725 45L54.54 51.3675L51.3675 54.54L45 48.1725L38.6325 54.54L35.46 51.3675L41.8275 45L35.46 38.6325L38.6325 35.46L45 41.8275V41.85Z" fill="white"/>
</g>
</g>
</svg>
