<svg width="828" height="828" viewBox="0 0 828 828" fill="none" xmlns="http://www.w3.org/2000/svg">
<g style="mix-blend-mode:overlay">
<path fill-rule="evenodd" clip-rule="evenodd" d="M113.133 -282.612L53.9238 -300.794L-271.627 759.346L-212.418 777.529L113.133 -282.612ZM195.863 -257.207L136.654 -275.389L-188.896 784.752L-129.687 802.934L195.863 -257.207ZM219.385 -249.984L278.594 -231.802L-46.9571 828.339L-106.166 810.157L219.385 -249.984ZM361.324 -206.397L302.115 -224.579L-23.4357 835.562L35.7733 853.744L361.324 -206.397ZM384.845 -199.174L444.054 -180.992L118.504 879.149L59.2947 860.967L384.845 -199.174ZM526.785 -155.587L467.576 -173.769L142.025 886.372L201.234 904.554L526.785 -155.587ZM550.306 -148.364L609.515 -130.182L283.964 929.959L224.755 911.777L550.306 -148.364ZM692.246 -104.776L633.037 -122.959L307.486 937.182L366.695 955.364L692.246 -104.776ZM715.767 -97.5535L774.976 -79.3714L449.425 980.769L390.216 962.587L715.767 -97.5535ZM857.706 -53.9663L798.497 -72.1484L472.947 987.992L532.156 1006.17L857.706 -53.9663ZM881.228 -46.7433L940.437 -28.5613L614.886 1031.58L555.677 1013.4L881.228 -46.7433ZM1023.17 -3.1562L963.958 -21.3383L638.407 1038.8L697.616 1056.98L1023.17 -3.1562ZM1046.69 4.0668L1105.9 22.2489L780.347 1082.39L721.138 1064.21L1046.69 4.0668ZM1188.63 47.6539L1129.42 29.4718L803.868 1089.61L863.077 1107.79L1188.63 47.6539Z" fill="white"/>
</g>
</svg>
