<svg width="24" height="24" viewBox="0 0 24 24" fill="none" xmlns="http://www.w3.org/2000/svg">
<g id="card-svgrepo-com 1">
<path id="Vector" d="M13.8945 3.99463H10.079C6.48179 3.99463 4.68317 3.99463 3.56564 5.11215C2.76102 5.91677 2.53574 7.07449 2.47266 9.00242H21.5009C21.4379 7.07449 21.2126 5.91677 20.4079 5.11215C19.2904 3.99463 17.4917 3.99463 13.8945 3.99463Z" fill="white" fill-opacity="0.2"/>
<path id="Vector_2" d="M10.0801 19.2564H13.8956C17.4928 19.2564 19.2915 19.2564 20.409 18.1388C21.5265 17.0214 21.5265 15.2227 21.5265 11.6254C21.5265 11.2039 21.5265 10.807 21.5247 10.4331H2.45102C2.44922 10.807 2.44922 11.2039 2.44922 11.6254C2.44922 15.2227 2.44922 17.0214 3.56674 18.1388C4.68427 19.2564 6.48289 19.2564 10.0801 19.2564Z" fill="white" fill-opacity="0.2"/>
<path id="Vector_3" fill-rule="evenodd" clip-rule="evenodd" d="M5.54688 15.441C5.54688 15.0459 5.86717 14.7256 6.26227 14.7256H10.0777C10.4728 14.7256 10.7931 15.0459 10.7931 15.441C10.7931 15.8361 10.4728 16.1564 10.0777 16.1564H6.26227C5.86717 16.1564 5.54688 15.8361 5.54688 15.441Z" fill="#0E0E10"/>
<path id="Vector_4" fill-rule="evenodd" clip-rule="evenodd" d="M11.748 15.441C11.748 15.0459 12.0684 14.7256 12.4634 14.7256H13.8942C14.2893 14.7256 14.6096 15.0459 14.6096 15.441C14.6096 15.8361 14.2893 16.1564 13.8942 16.1564H12.4634C12.0684 16.1564 11.748 15.8361 11.748 15.441Z" fill="#0E0E10"/>
</g>
</svg>
