<svg width="24" height="24" viewBox="0 0 24 24" fill="none" xmlns="http://www.w3.org/2000/svg">
<g id="card-svgrepo-com 1">
<path id="Vector" d="M13.9997 4H9.99967C6.22843 4 4.34282 4 3.17124 5.17157C2.3277 6.01511 2.09152 7.22882 2.02539 9.25H21.974C21.9079 7.22882 21.6717 6.01511 20.8281 5.17157C19.6566 4 17.7709 4 13.9997 4Z" fill="#64480C"/>
<path id="Vector_2" d="M10 20H14C17.7712 20 19.6569 20 20.8284 18.8284C22 17.6569 22 15.7712 22 12C22 11.5581 22 11.142 21.9981 10.75H2.00189C2 11.142 2 11.5581 2 12C2 15.7712 2 17.6569 3.17157 18.8284C4.34315 20 6.22876 20 10 20Z" fill="#64480C"/>
<path id="Vector_3" fill-rule="evenodd" clip-rule="evenodd" d="M5.25 16C5.25 15.5858 5.58579 15.25 6 15.25H10C10.4142 15.25 10.75 15.5858 10.75 16C10.75 16.4142 10.4142 16.75 10 16.75H6C5.58579 16.75 5.25 16.4142 5.25 16Z" fill="#E4A520"/>
<path id="Vector_4" fill-rule="evenodd" clip-rule="evenodd" d="M11.75 16C11.75 15.5858 12.0858 15.25 12.5 15.25H14C14.4142 15.25 14.75 15.5858 14.75 16C14.75 16.4142 14.4142 16.75 14 16.75H12.5C12.0858 16.75 11.75 16.4142 11.75 16Z" fill="#E4A520"/>
</g>
</svg>
