<svg width="24" height="24" viewBox="0 0 24 24" fill="none" xmlns="http://www.w3.org/2000/svg">
<path fill-rule="evenodd" clip-rule="evenodd" d="M11.9861 12.347C10.8056 12.347 9.79496 11.9266 8.95428 11.0859C8.11359 10.2452 7.69325 9.23463 7.69325 8.05409C7.69325 6.87355 8.11359 5.86294 8.95428 5.02226C9.79496 4.18157 10.8056 3.76123 11.9861 3.76123C13.1666 3.76123 14.1773 4.18157 15.0179 5.02226C15.8586 5.86294 16.279 6.87355 16.279 8.05409C16.279 9.23463 15.8586 10.2452 15.0179 11.0859C14.1773 11.9266 13.1666 12.347 11.9861 12.347ZM6.40539 20.9327C4.74578 20.9327 3.40039 19.5873 3.40039 17.9277C3.40039 17.3195 3.5569 16.7605 3.86992 16.2508C4.18294 15.741 4.59881 15.352 5.11753 15.0836C6.22652 14.5292 7.3534 14.1133 8.49816 13.836C9.64292 13.5588 10.8056 13.4202 11.9861 13.4202C13.1666 13.4202 14.3293 13.5588 15.4741 13.836C16.6188 14.1133 17.7457 14.5292 18.8547 15.0836C19.3734 15.352 19.7893 15.741 20.1023 16.2508C20.4153 16.7605 20.5718 17.3195 20.5718 17.9277C20.5718 19.5873 19.2264 20.9327 17.5668 20.9327H6.40539Z" fill="white" fill-opacity="0.25"/>
</svg>
