<svg width="23" height="24" viewBox="0 0 23 24" fill="none" xmlns="http://www.w3.org/2000/svg">
<g id="document-text-svgrepo-com 1">
<path id="Vector" fill-rule="evenodd" clip-rule="evenodd" d="M14.3068 11.1895C14.8336 11.1895 15.2607 11.6166 15.2607 12.1434C15.2607 12.6702 14.8336 13.0972 14.3068 13.0972H8.58365C8.05683 13.0972 7.62978 12.6702 7.62978 12.1434C7.62978 11.6166 8.05683 11.1895 8.58365 11.1895H14.3068ZM14.3068 14.0511C14.8336 14.0511 15.2607 14.4782 15.2607 15.005C15.2607 15.5318 14.8336 15.9588 14.3068 15.9588H8.58365C8.05683 15.9588 7.62978 15.5318 7.62978 15.005C7.62978 14.4782 8.05683 14.0511 8.58365 14.0511H14.3068ZM10.9855 2.60462C10.338 2.60363 9.76339 2.60275 9.23266 2.82259C8.70193 3.04243 8.29615 3.44939 7.83906 3.90794C6.93327 4.8165 6.02605 5.72371 5.11749 6.62949C4.65897 7.08663 4.25195 7.49235 4.03218 8.02308C3.81232 8.55382 3.81318 9.12846 3.81423 9.77596C3.81785 12.1758 3.81432 14.5756 3.81432 16.9756C3.81423 17.8212 3.81423 18.5497 3.89263 19.1331C3.97676 19.7584 4.1663 20.3578 4.65248 20.844C5.13857 21.3301 5.73798 21.5197 6.36324 21.6037C6.94672 21.6821 7.67528 21.6821 8.52088 21.682H14.3696C15.2152 21.6821 15.9438 21.6821 16.5272 21.6037C17.1525 21.5197 17.7519 21.3301 18.238 20.844C18.7242 20.3578 18.9137 19.7584 18.9978 19.1331C19.0763 18.5497 19.0762 17.8212 19.0762 16.9756L19.0762 7.37409C19.0762 7.35309 19.0762 7.33215 19.0762 7.3113C19.0762 6.46571 19.0763 5.73714 18.9978 5.15369C18.9137 4.52842 18.7242 3.92906 18.238 3.44291C17.7519 2.95675 17.1525 2.76718 16.5272 2.68312C15.9438 2.60467 15.2152 2.60471 14.3696 2.60476C13.2416 2.60482 12.1135 2.60636 10.9855 2.60462Z" fill="white" fill-opacity="0.25"/>
</g>
</svg>
