<svg width="24" height="24" viewBox="0 0 24 24" fill="none" xmlns="http://www.w3.org/2000/svg">
<path d="M12.439 10.9531C17.4303 10.9531 21.4756 9.20473 21.4756 7.0503C21.4756 4.89588 17.4303 3.14746 12.439 3.14746C7.44764 3.14746 3.40234 4.89588 3.40234 7.0503C3.40234 9.20473 7.44764 10.9531 12.439 10.9531ZM12.439 17.1933C8.99022 17.1933 5.94036 16.3337 4.01655 15.006C3.62473 15.4449 3.40234 15.9167 3.40234 16.4142C3.40234 18.5686 7.44764 20.317 12.439 20.317C17.4303 20.317 21.4756 18.5686 21.4756 16.4142C21.4756 15.9167 21.2532 15.4449 20.8614 15.0096C18.9376 16.3337 15.8877 17.1933 12.439 17.1933ZM12.439 12.5114C8.99022 12.5114 5.94036 11.6518 4.01655 10.324C3.62473 10.7629 3.40234 11.2348 3.40234 11.7323C3.40234 13.8867 7.44764 15.6351 12.439 15.6351C17.4303 15.6351 21.4756 13.8867 21.4756 11.7323C21.4756 11.2348 21.2532 10.7629 20.8614 10.3277C18.9376 11.6518 15.8877 12.5114 12.439 12.5114Z" fill="white" fill-opacity="0.2"/>
</svg>
