<svg width="23" height="23" viewBox="0 0 23 23" fill="none" xmlns="http://www.w3.org/2000/svg">
<path d="M7.23491 8.47519L8.10501 2.7002H3.57961L1.68871 7.6502C1.63041 7.82619 1.59961 8.00879 1.59961 8.20019C1.59961 9.41459 2.86461 10.4002 4.42771 10.4002C5.86871 10.4002 7.06001 9.55979 7.23491 8.47519ZM11.4996 10.4002C13.0616 10.4002 14.3277 9.41459 14.3277 8.20019C14.3277 8.15509 14.3244 8.10999 14.3222 8.0671L13.7623 2.7002H9.23691L8.67591 8.0627C8.67371 8.10779 8.67151 8.15289 8.67151 8.20019C8.67151 9.41459 9.93761 10.4002 11.4996 10.4002ZM16.9996 11.5508V15.9002H5.99961V11.5574C5.51781 11.7312 4.98761 11.8302 4.42771 11.8302C4.21321 11.8302 4.00531 11.8049 3.79961 11.7763V18.7602C3.79961 19.6072 4.49151 20.3002 5.33741 20.3002H17.6596C18.5066 20.3002 19.1996 19.6061 19.1996 18.7602V11.7774C18.9917 11.8093 18.7818 11.8273 18.5715 11.8313C18.0351 11.8308 17.5031 11.7358 16.9996 11.5508ZM21.3116 7.6502L19.4185 2.7002H14.8942L15.7632 8.46639C15.9326 9.55539 17.1239 10.4002 18.5715 10.4002C20.1335 10.4002 21.3996 9.41459 21.3996 8.20019C21.3996 8.00879 21.3688 7.82619 21.3116 7.6502Z" fill="#64480C"/>
</svg>
