<svg width="69" height="27" viewBox="0 0 69 27" fill="none" xmlns="http://www.w3.org/2000/svg">
<path d="M12.6484 3.55016C11.8451 4.45264 10.5598 5.16446 9.27458 5.06277C9.11393 3.84251 9.74317 2.54599 10.4795 1.74519C11.2828 0.817287 12.6885 0.156313 13.8265 0.105469C13.9604 1.37657 13.4383 2.62225 12.6484 3.55016ZM13.8131 5.30428C11.9522 5.2026 10.359 6.30846 9.4754 6.30846C8.5784 6.30846 7.22621 5.35513 5.75352 5.38055C3.83903 5.40597 2.05842 6.43557 1.08109 8.07529C-0.927122 11.3547 0.558954 16.2104 2.50022 18.8797C3.45078 20.2016 4.58876 21.6507 6.08822 21.5998C7.50736 21.549 8.06966 20.7228 9.78333 20.7228C11.5104 20.7228 12.0057 21.5998 13.5052 21.5744C15.0582 21.549 16.0356 20.2525 16.9861 18.9305C18.0705 17.4306 18.5123 15.9688 18.5391 15.8926C18.5123 15.8672 15.5402 14.7867 15.5134 11.5327C15.4866 8.81253 17.8563 7.51601 17.9634 7.43974C16.6246 5.5585 14.5361 5.35513 13.8131 5.30428ZM24.5638 1.61808V21.4346H27.8037V14.6596H32.2887C36.3854 14.6596 39.2638 11.9903 39.2638 8.12613C39.2638 4.26198 36.439 1.61808 32.3958 1.61808H24.5638ZM27.8037 4.21113H31.5389C34.3504 4.21113 35.957 5.63477 35.957 8.13885C35.957 10.6429 34.3504 12.0793 31.5255 12.0793H27.8037V4.21113ZM45.1814 21.5871C47.2164 21.5871 49.1041 20.6084 49.9609 19.0576H50.0278V21.4346H53.0268V11.5708C53.0268 8.71084 50.6169 6.86774 46.9084 6.86774C43.4677 6.86774 40.924 8.73626 40.8302 11.3039H43.7488C43.9898 10.0836 45.1814 9.28284 46.8147 9.28284C48.7961 9.28284 49.9074 10.1599 49.9074 11.7742V12.8674L45.8642 13.0962C42.1021 13.3122 40.0671 14.774 40.0671 17.3162C40.0671 19.8838 42.1691 21.5871 45.1814 21.5871ZM46.0516 19.2356C44.3245 19.2356 43.2267 18.4475 43.2267 17.24C43.2267 15.9943 44.2844 15.2697 46.306 15.1553L49.9074 14.9393V16.0578C49.9074 17.9136 48.2472 19.2356 46.0516 19.2356ZM57.0298 26.8241C60.1894 26.8241 61.6755 25.6801 62.9741 22.21L68.664 7.05841H65.3706L61.555 18.7653H61.488L57.6724 7.05841H54.2853L59.7744 21.4854L59.4798 22.3625C58.9845 23.8497 58.1812 24.4217 56.7487 24.4217C56.4943 24.4217 55.9989 24.3963 55.7981 24.3708V26.7478C55.9855 26.7987 56.7888 26.8241 57.0298 26.8241Z" fill="white"/>
</svg>
