<svg width="77" height="29" viewBox="0 0 77 29" fill="none" xmlns="http://www.w3.org/2000/svg">
<path fill-rule="evenodd" clip-rule="evenodd" d="M36.4219 22.581V14.11L41.0045 14.1083C42.8938 14.1095 44.4816 13.5159 45.7679 12.3274C47.0679 11.1994 47.7946 9.57778 47.7576 7.88758C47.7834 6.20658 47.058 4.59693 45.7679 3.47251C44.4929 2.27766 42.7781 1.6257 41.0045 1.66156H33.6484V22.581H36.4219ZM36.4219 11.5395V4.23714L41.0734 4.23546C42.1102 4.2071 43.1095 4.61139 43.8178 5.34542C44.5305 6.01673 44.9325 6.93873 44.9325 7.90166C44.9325 8.86459 44.5305 9.78678 43.8178 10.4579C43.1007 11.1765 42.1045 11.5692 41.0734 11.5395H36.4219Z" fill="#5F6368"/>
<path fill-rule="evenodd" clip-rule="evenodd" d="M58.9868 9.39315C57.8004 8.33145 56.1823 7.80078 54.1322 7.80078C51.4987 7.80078 49.51 8.73536 48.1662 10.6049L50.6092 12.0955C51.5119 10.8291 52.7379 10.1959 54.2873 10.1959C55.275 10.1848 56.231 10.5347 56.9645 11.1757C57.6957 11.7616 58.1163 12.635 58.1101 13.5543V14.1686C57.0443 13.5844 55.6879 13.2922 54.0409 13.2922C52.1115 13.2945 50.5691 13.7329 49.4136 14.6076C48.2582 15.4821 47.6804 16.66 47.6804 18.141C47.6553 19.4897 48.2592 20.7775 49.3241 21.6463C50.4196 22.5811 51.7812 23.0485 53.4087 23.0485C55.3152 23.0485 56.8426 22.2305 57.9912 20.5948H58.1118V22.5811H60.7647V13.7596C60.7659 11.9101 60.1732 10.4547 58.9868 9.39315ZM51.4636 19.9522C50.8826 19.5464 50.5399 18.8935 50.5437 18.1994C50.5437 17.42 50.921 16.7708 51.6807 16.2366C52.433 15.7102 53.3724 15.4472 54.4991 15.4472C56.0462 15.4472 57.2521 15.7808 58.1169 16.4486C58.1169 17.577 57.6575 18.56 56.7387 19.398C55.9112 20.1999 54.7892 20.6513 53.6188 20.6532C52.8386 20.6672 52.0771 20.4198 51.4636 19.9522Z" fill="#5F6368"/>
<path fill-rule="evenodd" clip-rule="evenodd" d="M76.0121 8.26953L66.7506 28.8919H63.8873L67.3243 21.676L61.2344 8.26953H64.2492L68.6507 18.5514H68.711L72.992 8.26953H76.0121Z" fill="#5F6368"/>
<path fill-rule="evenodd" clip-rule="evenodd" d="M25.2079 12.2834C25.209 11.4645 25.1375 10.6469 24.9944 9.83984H13.2969V14.4684H19.9967C19.7197 15.9622 18.8247 17.2815 17.5193 18.1205V21.125H21.5179C23.8591 19.0335 25.2079 15.9406 25.2079 12.2834Z" fill="#4285F4"/>
<path fill-rule="evenodd" clip-rule="evenodd" d="M13.309 24.0305C16.6564 24.0305 19.4747 22.9654 21.53 21.1295L17.5314 18.125C16.4186 18.856 14.9853 19.2733 13.309 19.2733C10.0737 19.2733 7.32765 17.1602 6.34575 14.3125H2.22656V17.4088C4.332 21.4682 8.62014 24.0301 13.309 24.0305Z" fill="#34A853"/>
<path fill-rule="evenodd" clip-rule="evenodd" d="M6.3384 14.3098C5.81919 12.8177 5.81919 11.2017 6.3384 9.70958V6.61328H2.21921C0.458179 10.0085 0.458179 14.0109 2.21921 17.4061L6.3384 14.3098Z" fill="#FBBC04"/>
<path fill-rule="evenodd" clip-rule="evenodd" d="M13.309 4.75018C15.0779 4.72201 16.787 5.36966 18.0673 6.55286L21.6075 3.12269C19.3626 1.07984 16.3886 -0.0417682 13.309 -0.00702897C8.62014 -0.00684119 4.332 2.55522 2.22656 6.61445L6.34575 9.71075C7.32765 6.86326 10.0737 4.75018 13.309 4.75018Z" fill="#EA4335"/>
</svg>
