<svg width="130" height="24" viewBox="0 0 130 24" fill="none" xmlns="http://www.w3.org/2000/svg">
<path d="M12.5467 10.3271H24.1251L23.7316 12.6559C23.1849 16.1321 21.7085 18.8882 19.3036 20.9209C16.9198 22.9546 13.9903 23.9709 10.513 23.9709C6.92673 23.9709 4.17174 22.7896 2.24801 20.4291C0.323219 18.0464 -0.365264 15.1264 0.181503 11.6713C0.728271 8.32616 2.28079 5.53733 4.83908 3.30795C7.35294 1.12194 10.3268 0.0273438 13.7608 0.0273438C15.969 0.0273438 17.9044 0.503256 19.5658 1.45402C21.2273 2.40478 22.4953 3.7331 23.371 5.43897L17.9922 8.3251C17.0298 6.61923 15.4223 5.76682 13.1707 5.76682C11.3992 5.76682 9.83613 6.34637 8.48032 7.50548C7.16892 8.66458 6.34824 10.1621 6.02039 11.9991C5.69254 13.8361 5.9876 15.3665 6.90558 16.5911C7.82356 17.7936 9.20158 18.3954 11.0386 18.3954C13.8369 18.3954 15.8157 17.3896 16.9748 15.3781H11.6615L12.5467 10.3271Z" fill="#DAAF2D"/>
<path d="M25.5988 0.519531H42.8183L41.8019 6.19449H36.1608L33.1097 23.4785H27.2391L30.2891 6.19344H24.6152L25.5988 0.519531Z" fill="#DAAF2D"/>
<path d="M59.6129 23.4785H53.3478L52.9872 20.1662H45.3451L43.7704 23.4785H37.3086L48.9197 0.519531H56.07L59.6129 23.4785ZM51.5774 7.17804L47.7723 15.1152H52.4298L51.5774 7.17804Z" fill="#DAAF2D"/>
<path d="M79.6526 0.520587L78.6691 6.12892H70.6336L70.0107 8.58885H71.4215C73.6297 8.58885 75.3906 9.29954 76.702 10.7209C78.0356 12.1201 78.484 14.0777 78.0472 16.5915C77.6094 18.9975 76.5275 20.8335 74.8005 22.1015C73.0724 23.3473 71.0397 23.9713 68.7004 23.9713C64.5462 23.9713 61.8885 22.2443 60.7305 18.7892L66.1421 15.9686C66.6222 17.4989 67.684 18.2646 69.3233 18.2646C70.1101 18.2646 70.7669 18.0795 71.2914 17.7073C71.816 17.3361 72.1333 16.8221 72.2422 16.1653C72.3511 15.5096 72.2263 14.984 71.8647 14.5906C71.504 14.1972 70.9403 14.0005 70.1757 14.0005H62.7959L66.1082 0.519531H79.6526V0.520587Z" fill="#DAAF2D"/>
<path d="M83.3276 0.519531H92.6756C95.715 0.519531 98.1305 1.67864 99.9242 3.99579C101.717 6.314 102.34 9.0912 101.794 12.3263C101.204 15.6069 99.7053 18.2847 97.3003 20.3618C94.8944 22.4399 92.0082 23.4774 88.6409 23.4774H79.293L83.3276 0.519531ZM96.0862 11.9001C96.3697 10.1731 96.1074 8.78979 95.2994 7.75125C94.4904 6.71271 93.2868 6.19344 91.692 6.19344H88.3797L86.3132 17.8046H89.4616C91.123 17.8046 92.555 17.2694 93.7585 16.1971C94.9821 15.1046 95.7584 13.6716 96.0862 11.9001Z" fill="url(#paint0_linear_171_916)"/>
<path d="M123.769 0.519531H130.001L125.967 23.4785H120.129L122.294 11.0805L115.111 20.3301H114.521L110.617 10.9166L108.419 23.4785H102.549L106.583 0.519531H112.454L116.194 10.4248L123.769 0.519531Z" fill="url(#paint1_linear_171_916)"/>
<defs>
<linearGradient id="paint0_linear_171_916" x1="90.6388" y1="-2.63363" x2="90.6388" y2="28.444" gradientUnits="userSpaceOnUse">
<stop offset="0.1532" stop-color="#DE851F"/>
<stop offset="1" stop-color="#DB1C1C"/>
</linearGradient>
<linearGradient id="paint1_linear_171_916" x1="116.275" y1="-2.63363" x2="116.275" y2="28.444" gradientUnits="userSpaceOnUse">
<stop offset="0.1532" stop-color="#DE851F"/>
<stop offset="1" stop-color="#DB1C1C"/>
</linearGradient>
</defs>
</svg>
