<svg width="41" height="26" viewBox="0 0 41 26" fill="none" xmlns="http://www.w3.org/2000/svg">
<path d="M25.6579 22.7598H14.7656V3.33008H25.6579V22.7598Z" fill="#FF5F00"/>
<path d="M15.465 13.0424C15.465 9.10101 17.3241 5.59006 20.2195 3.32754C18.1022 1.67306 15.4301 0.685547 12.526 0.685547C5.65113 0.685547 0.078125 6.21785 0.078125 13.0424C0.078125 19.8669 5.65113 25.3992 12.526 25.3992C15.4301 25.3992 18.1022 24.4118 20.2195 22.7573C17.3241 20.4947 15.465 16.9838 15.465 13.0424Z" fill="#EB001B"/>
<path d="M40.353 13.0424C40.353 19.8669 34.78 25.3992 27.9051 25.3992C25.001 25.3992 22.329 24.4118 20.2109 22.7573C23.107 20.4947 24.9662 16.9838 24.9662 13.0424C24.9662 9.10101 23.107 5.59006 20.2109 3.32754C22.329 1.67306 25.001 0.685547 27.9051 0.685547C34.78 0.685547 40.353 6.21785 40.353 13.0424Z" fill="#F79E1B"/>
</svg>
