<svg width="80" height="23" viewBox="0 0 80 23" fill="none" xmlns="http://www.w3.org/2000/svg">
<path fill-rule="evenodd" clip-rule="evenodd" d="M21.5911 0.429688V0.439326C21.5814 0.439326 18.5056 0.429688 17.6854 3.33084C16.9335 5.99103 14.8146 13.3355 14.756 13.5379H14.1702C14.1702 13.5379 12.0025 6.02959 11.2408 3.3212C10.4206 0.420049 7.33507 0.429688 7.33507 0.429688H0.304688V22.5016H7.33507V9.39338H7.628H7.92093L12.022 22.5016H16.9042L21.0053 9.40302H21.5911V22.5016H28.6215V0.429688H21.5911Z" fill="#4DB45E"/>
<path fill-rule="evenodd" clip-rule="evenodd" d="M47.2715 0.429688C47.2715 0.429688 45.2112 0.612817 44.2445 2.7429L39.2647 13.5379H38.6788V0.429688H31.6484V22.5016H38.2882C38.2882 22.5016 40.4462 22.3088 41.4129 20.1884L46.2951 9.39338H46.8809V22.5016H53.9113V0.429688H47.2715Z" fill="#4DB45E"/>
<path fill-rule="evenodd" clip-rule="evenodd" d="M57.0312 10.4531V22.5011H64.0616V15.4651H71.6779C74.9978 15.4651 77.8099 13.3736 78.8547 10.4531H57.0312Z" fill="#4DB45E"/>
<path fill-rule="evenodd" clip-rule="evenodd" d="M71.6797 0.429688H56.0469C56.828 4.63202 60.021 8.00545 64.1513 9.10423C65.0887 9.35483 66.0749 9.48977 67.0904 9.48977H79.1397C79.2471 8.98857 79.296 8.47773 79.296 7.94762C79.296 3.79348 75.8882 0.429688 71.6797 0.429688Z" fill="url(#paint0_linear_171_892)"/>
<defs>
<linearGradient id="paint0_linear_171_892" x1="56.0488" y1="4.95973" x2="79.296" y2="4.95973" gradientUnits="userSpaceOnUse">
<stop offset="0.3" stop-color="#00B4E6"/>
<stop offset="1" stop-color="#088CCB"/>
</linearGradient>
</defs>
</svg>
