<svg width="33" height="24" viewBox="0 0 33 24" fill="none" xmlns="http://www.w3.org/2000/svg">
<path d="M20.9721 0.105469C14.5592 0.105469 9.41723 5.33302 9.41723 11.7223C9.41723 18.1696 14.6169 23.339 20.9721 23.339C27.3273 23.339 32.527 18.1115 32.527 11.7223C32.527 5.33302 27.3273 0.105469 20.9721 0.105469ZM20.9721 15.9624C18.6034 15.9624 16.639 13.9875 16.639 11.6061C16.639 9.22464 18.6034 7.24979 20.9721 7.24979C23.3409 7.24979 25.3052 9.22464 25.3052 11.6061C25.2474 14.1037 23.3409 15.9624 20.9721 15.9624ZM9.35946 3.41625V20.3187H5.25747L0 3.41625H9.35946Z" fill="#8B3FFD"/>
</svg>
