<svg width="28" height="29" viewBox="0 0 28 29" fill="none" xmlns="http://www.w3.org/2000/svg">
<path d="M27.5988 10.3521C27.2688 7.77767 26.3446 5.43428 24.7273 3.718C23.0111 2.10073 20.6677 1.17658 18.0932 0.846525C15.6178 0.51647 13.9346 0.615487 13.9346 0.615487C13.9346 0.615487 12.2513 0.549476 9.77587 0.846525C7.20144 1.17658 4.85805 2.10073 3.14177 3.718C1.5245 5.43428 0.600348 7.77767 0.270293 10.3521C-0.0597614 12.8275 0.00624956 14.5108 0.00624956 14.5108C0.00624956 14.5108 -0.0597614 16.1941 0.237288 18.6695C0.567343 21.2436 1.4915 23.5873 3.10876 25.3036C4.82505 26.9208 7.16844 27.8447 9.74286 28.1747C12.2183 28.5048 13.9016 28.4061 13.9016 28.4061C13.9016 28.4061 15.5848 28.4718 18.0602 28.1747C20.6347 27.8447 22.9781 26.9208 24.6943 25.3036C26.3116 23.5876 27.2358 21.2436 27.5658 18.6695C27.8959 16.1941 27.7969 14.5108 27.7969 14.5108C27.7969 14.5108 27.9289 12.8275 27.5988 10.3521Z" fill="#1E4BC6"/>
<path d="M5.10938 10.4512H7.61779C8.01386 10.4512 8.34391 10.5172 8.67397 10.6492C9.00402 10.7812 9.26806 10.9793 9.4991 11.2103C9.73014 11.4413 9.92817 11.7054 10.0602 12.0354C10.1922 12.3655 10.2582 12.6955 10.2582 13.0586C10.2582 13.4217 10.1922 13.7517 10.0602 14.0818C9.92817 14.4118 9.73014 14.6762 9.4991 14.9069C9.26806 15.1376 8.97101 15.3363 8.67397 15.4677C8.37692 15.5997 8.01386 15.6664 7.61779 15.6664H6.4956V17.7454H5.14238V10.4512H5.10938ZM6.4626 11.7057V14.3792H7.51877C7.71681 14.3792 7.91484 14.3461 8.07987 14.2801C8.24489 14.2141 8.37692 14.1151 8.50894 13.9831C8.64096 13.8511 8.70697 13.719 8.77298 13.554C8.83899 13.389 8.872 13.224 8.872 13.0259C8.872 12.8279 8.83899 12.6629 8.77298 12.4978C8.70697 12.3328 8.60795 12.2008 8.50894 12.0688C8.37692 11.9367 8.24489 11.8377 8.07987 11.7717C7.91484 11.7057 7.71681 11.6727 7.51877 11.6727H6.4626V11.7057ZM13.3937 17.7454C13.0307 17.7454 12.7006 17.6797 12.3376 17.5473C12.0075 17.4153 11.6775 17.2173 11.4134 16.9866C11.1494 16.7222 10.9183 16.4252 10.7533 16.0621C10.5883 15.699 10.4893 15.27 10.4893 14.8079C10.4893 14.3458 10.5553 13.9167 10.7203 13.5537C10.8853 13.1906 11.1164 12.8936 11.3804 12.6295C11.6445 12.3655 11.9745 12.2005 12.3046 12.0684C12.6676 11.9364 12.9977 11.8704 13.3937 11.8704C13.7898 11.8704 14.1529 11.9364 14.4499 12.0684C14.78 12.2005 15.044 12.3985 15.2751 12.6295V11.8704H16.6283V17.7451H15.2751V16.9199C15.077 17.1843 14.78 17.382 14.4499 17.547C14.1199 17.6797 13.7898 17.7454 13.3937 17.7454ZM13.6248 16.5245C13.8888 16.5245 14.1199 16.4915 14.3179 16.3925C14.5159 16.2935 14.714 16.1945 14.879 16.0294C15.044 15.8644 15.143 15.6994 15.2421 15.5013C15.3411 15.3026 15.3741 15.0719 15.3741 14.8412C15.3741 14.6099 15.3411 14.3788 15.2421 14.1811C15.143 13.9831 15.044 13.7851 14.879 13.653C14.714 13.488 14.5489 13.389 14.3179 13.29C14.0869 13.158 13.8558 13.1249 13.6248 13.1249C13.3937 13.1249 13.1627 13.158 12.9317 13.257C12.7006 13.356 12.5356 13.455 12.3706 13.62C12.2056 13.7851 12.0735 13.9501 12.0075 14.1481C11.9085 14.3461 11.8755 14.5772 11.8755 14.8082C11.8755 15.0393 11.9085 15.27 12.0075 15.468C12.1065 15.6667 12.2386 15.8644 12.3706 16.0294C12.5356 16.1945 12.7336 16.2931 12.9317 16.3925C13.1297 16.4582 13.3607 16.5245 13.6248 16.5245ZM18.5096 11.9034L20.1599 15.8971L21.6781 11.9034H23.0974L19.6318 20.4188H18.2456L19.4668 17.4817L17.0904 11.9034H18.5096Z" fill="white"/>
</svg>
