<svg width="72" height="22" viewBox="0 0 72 22" fill="none" xmlns="http://www.w3.org/2000/svg">
<path d="M31.2699 21.3779H25.5234L29.1177 0.542969H34.8639L31.2699 21.3779Z" fill="#2F3378"/>
<path d="M52.1048 1.05114C50.9713 0.62955 49.1737 0.164062 46.9508 0.164062C41.276 0.164062 37.2799 3.00104 37.2553 7.05695C37.2082 10.0494 40.1164 11.7115 42.2916 12.7093C44.5148 13.729 45.2706 14.3945 45.2706 15.3033C45.248 16.6992 43.4741 17.3425 41.8196 17.3425C39.5253 17.3425 38.2961 17.0108 36.4279 16.2343L35.6714 15.9014L34.8672 20.5783C36.215 21.1539 38.6981 21.6648 41.276 21.6872C47.3056 21.6872 51.231 18.8942 51.2774 14.5719C51.3004 12.2001 49.7647 10.3826 46.4539 8.89762C44.4441 7.94432 43.2132 7.30145 43.2132 6.32613C43.2369 5.43935 44.2543 4.53114 46.5231 4.53114C48.3912 4.48664 49.7639 4.90764 50.8036 5.32893L51.3233 5.55021L52.1048 1.05114Z" fill="#2F3378"/>
<path fill-rule="evenodd" clip-rule="evenodd" d="M62.3827 0.542969H66.8275L71.4635 21.3776H66.1428C66.1428 21.3776 65.6221 18.9838 65.4572 18.2522H58.0792C57.866 18.8061 56.8732 21.3776 56.8732 21.3776H50.8438L59.3792 2.27159C59.9706 0.919467 61.012 0.542969 62.3827 0.542969ZM62.0286 8.16742C62.0286 8.16742 60.2075 12.7998 59.7343 13.9967H64.5108C64.2745 12.9552 63.1862 7.96786 63.1862 7.96786L62.7847 6.17273C62.6155 6.63494 62.371 7.27052 62.2059 7.69925C62.0942 7.98974 62.0189 8.18528 62.0286 8.16742Z" fill="#2F3378"/>
<path fill-rule="evenodd" clip-rule="evenodd" d="M0.625836 0.541016H9.87116C11.1245 0.584916 12.1413 0.961711 12.4721 2.2924L14.4814 11.8653L14.482 11.8671L15.0969 14.7484L20.7246 0.541016H26.8009L17.7685 21.3539H11.6919L6.57014 3.25016C4.80298 2.28154 2.78616 1.5025 0.53125 0.962008L0.625836 0.541016Z" fill="#2F3378"/>
</svg>
